<?xml version="1.0" ?><!DOCTYPE svg  PUBLIC '-//W3C//DTD SVG 1.1//EN'  'http://www.w3.org/Graphics/SVG/1.1/DTD/svg11.dtd'><svg style="fill: #fff" id="less" version="1.1" viewBox="0 0 512 512"  xml:space="preserve" xmlns="http://www.w3.org/2000/svg" xmlns:xlink="http://www.w3.org/1999/xlink"><g id="comp_x5F_198-less"><g><path d="    M466.794,229.934c0-14.424,2.25-22.937,2.25-38.414c0-24.063-8.864-31.802-28.493-31.802h-14.424v17.026h4.433    c9.991,0,12.171,3.307,12.171,15.549c0,11.468-1.126,22.936-1.126,36.233c0,17.026,5.559,23.64,16.606,26.243v1.125    c-11.117,2.602-16.606,9.217-16.606,26.243c0,13.297,1.126,24.061,1.126,36.232c0,12.596-2.604,15.902-12.171,15.902v0.351h-4.433    v17.729h14.424c19.558,0,28.493-7.739,28.493-31.801c0-15.9-2.25-24.061-2.25-38.414c0-7.739,4.783-15.902,19.206-16.604v-19.207    C471.577,245.834,466.794,237.673,466.794,229.934L466.794,229.934z" /><path d="    M392.495,252.447c-11.115-4.433-21.457-7.036-21.457-14.423c0-5.559,4.432-8.864,12.593-8.864s15.551,3.306,23.642,9.216    l14.773-19.559c-9.218-7.037-21.811-14.424-38.837-14.424c-25.118,0-42.144,14.424-42.144,34.756    c0,18.082,15.901,27.369,29.199,32.505c11.468,4.432,22.584,8.162,22.584,15.549c0,5.559-4.434,9.216-14.423,9.216    c-9.217,0-18.505-3.729-28.495-11.468l-14.772,21.459c11.114,9.218,28.071,15.551,42.142,15.551    c29.549,0,45.449-15.551,45.449-35.883C422.749,265.745,406.919,257.231,392.495,252.447L392.495,252.447z" /><path d="    M130.198,294.239c-2.603,0-5.91-2.251-5.91-9.216V159.647H71.802c-19.982,0-28.847,7.739-28.847,31.801    c0,15.901,2.251,24.766,2.251,38.414c0,7.74-4.784,15.901-19.207,16.604v19.208c14.423,0.352,19.207,8.513,19.207,16.252    c0,13.65-2.251,21.81-2.251,37.71c0,24.063,8.864,31.802,28.495,31.802h14.423v-17.026h-4.433    c-9.216,0-12.172-3.729-12.172-15.902c0-12.17,1.125-22.581,1.125-36.232c0-17.024-5.557-23.639-16.603-26.242v-1.127    c11.115-2.602,16.603-9.215,16.603-26.241c0-13.296-1.125-24.062-1.125-36.234c0-12.171,2.604-15.549,12.172-15.549h9.92v106.099    c0,22.584,7.739,37.36,30.324,37.36c7.035,0,12.593-1.127,16.604-2.603l-3.729-24.063    C132.379,294.239,131.324,294.239,130.198,294.239L130.198,294.239z"/><path d="    M303.003,252.447c-11.469-4.433-21.811-7.036-21.811-14.423c0-5.559,4.433-8.864,12.594-8.864s15.549,3.306,23.64,9.216    l14.774-19.559c-9.216-7.037-21.811-14.424-38.836-14.424c-25.118,0-42.144,14.424-42.144,34.756    c0,18.082,15.901,27.369,29.199,32.505c11.467,4.432,22.583,8.162,22.583,15.549c0,5.559-4.434,9.216-14.423,9.216    c-9.216,0-18.504-3.729-28.494-11.468l-14.424,21.459c11.116,9.218,28.071,15.551,42.145,15.551    c29.55,0,45.449-15.551,45.449-35.883C333.327,265.745,317.426,257.231,303.003,252.447L303.003,252.447z"/><path d="    M193.951,204.042c-27.018,0-52.839,22.585-52.135,58.044c0,36.587,24.062,58.045,55.793,58.045    c13.297,0,28.072-4.786,39.54-12.592l-11.117-19.562c-8.161,4.784-15.901,7.034-24.062,7.034c-14.775,0-26.242-7.034-29.199-24.06    h66.98c0.352-2.605,1.125-7.739,1.125-13.649C241.301,227.33,224.978,204.042,193.951,204.042L193.951,204.042z" /><path d="    M172.844,250.618c2.25-14.774,11.116-21.811,21.458-21.811c13.297,0,18.502,9.217,18.502,21.811H172.844z" /></g></g><g id="Layer_1"/></svg>